<?xml version="1.0" encoding="UTF-8"?>
<svg xmlns="http://www.w3.org/2000/svg" width="1600" height="900" viewBox="0 0 1600 900">
  <defs>
    <pattern id="grid" width="48" height="48" patternUnits="userSpaceOnUse">
      <path d="M48 0H0V48" fill="none" stroke="#2a3435" stroke-width="1" opacity="0.42"/>
    </pattern>
    <symbol id="mail" viewBox="0 0 24 24">
      <rect x="2" y="4" width="20" height="16" rx="2" fill="none" stroke="currentColor" stroke-width="2"/>
      <path d="m22 7-8.97 5.7a1.94 1.94 0 0 1-2.06 0L2 7" fill="none" stroke="currentColor" stroke-width="2"/>
    </symbol>
    <symbol id="trash" viewBox="0 0 24 24">
      <path d="M3 6h18M8 6V4c0-1.1.9-2 2-2h4c1.1 0 2 .9 2 2v2M19 6l-1 14c-.1 1.1-1 2-2 2H8c-1.1 0-1.9-.9-2-2L5 6M10 11v6M14 11v6" fill="none" stroke="currentColor" stroke-width="2" stroke-linecap="round" stroke-linejoin="round"/>
    </symbol>
    <symbol id="shield" viewBox="0 0 24 24">
      <path d="M20 13c0 5-3.5 7.5-8 9-4.5-1.5-8-4-8-9V5l8-3 8 3v8Z" fill="none" stroke="currentColor" stroke-width="2"/>
      <path d="m9 12 2 2 4-4" fill="none" stroke="currentColor" stroke-width="2" stroke-linecap="round" stroke-linejoin="round"/>
    </symbol>
  </defs>

  <rect width="1600" height="900" fill="#121719"/>
  <rect width="1600" height="900" fill="url(#grid)"/>
  <path d="M0 0h920L670 900H0Z" fill="#1b2425"/>
  <rect width="1600" height="16" fill="#e76f51"/>
  <rect x="74" y="104" width="10" height="590" fill="#5bc0be"/>

  <g font-family="FandolHei, Droid Sans Fallback, sans-serif">
    <text x="128" y="250" fill="#f3f2ea" font-size="124" font-weight="700">一键清理</text>
    <text x="128" y="392" fill="#f3f2ea" font-size="124" font-weight="700">通知信件</text>
    <rect x="128" y="433" width="690" height="5" fill="#e9c46a"/>
    <text x="128" y="514" fill="#5bc0be" font-size="46" font-weight="700">批量清理，确认一次即可</text>
    <text x="128" y="584" fill="#c8cfca" font-size="31">只清除可关闭信件</text>
    <text x="128" y="632" fill="#c8cfca" font-size="31">需要处理的信件仍会保留</text>
  </g>

  <g transform="translate(930 104)" font-family="FandolHei, Droid Sans Fallback, sans-serif">
    <rect x="90" y="62" width="448" height="120" rx="7" fill="#0b0f10" opacity="0.55"/>
    <rect x="70" y="44" width="448" height="120" rx="7" fill="#edf0e9"/>
    <rect x="70" y="44" width="12" height="120" fill="#e9c46a"/>
    <use href="#mail" x="105" y="79" width="50" height="50" color="#273233"/>
    <rect x="184" y="79" width="238" height="13" rx="6" fill="#6d7775"/>
    <rect x="184" y="111" width="172" height="10" rx="5" fill="#a6aeaa"/>
    <text x="411" y="120" fill="#56605e" font-size="22" font-weight="700">可关闭</text>

    <rect x="54" y="218" width="448" height="120" rx="7" fill="#0b0f10" opacity="0.55"/>
    <rect x="34" y="200" width="448" height="120" rx="7" fill="#edf0e9"/>
    <rect x="34" y="200" width="12" height="120" fill="#e76f51"/>
    <use href="#mail" x="69" y="235" width="50" height="50" color="#273233"/>
    <rect x="148" y="235" width="238" height="13" rx="6" fill="#6d7775"/>
    <rect x="148" y="267" width="198" height="10" rx="5" fill="#a6aeaa"/>
    <text x="375" y="276" fill="#56605e" font-size="22" font-weight="700">可关闭</text>

    <rect x="90" y="374" width="448" height="120" rx="7" fill="#0b0f10" opacity="0.55"/>
    <rect x="70" y="356" width="448" height="120" rx="7" fill="#edf0e9"/>
    <rect x="70" y="356" width="12" height="120" fill="#5bc0be"/>
    <use href="#shield" x="105" y="389" width="54" height="54" color="#287c7a"/>
    <rect x="184" y="391" width="208" height="13" rx="6" fill="#56605e"/>
    <rect x="184" y="423" width="142" height="10" rx="5" fill="#a6aeaa"/>
    <text x="376" y="432" fill="#287c7a" font-size="22" font-weight="700">需要处理</text>

    <rect x="112" y="544" width="104" height="104" rx="8" fill="#e76f51"/>
    <use href="#trash" x="140" y="572" width="48" height="48" color="#fffaf3"/>
    <rect x="238" y="552" width="280" height="88" rx="7" fill="#394547" stroke="#7b8783" stroke-width="2"/>
    <text x="270" y="610" fill="#f3f2ea" font-size="27" font-weight="700">12 条可关闭信件</text>
  </g>

  <rect y="786" width="1600" height="114" fill="#0b0f10"/>
  <g fill="#dce2dd" font-family="FandolHei, Droid Sans Fallback, sans-serif" font-size="27" font-weight="700">
    <text x="128" y="855">支持《环世界》1.6</text>
    <text x="650" y="855" fill="#e9c46a">需要 Harmony 前置</text>
    <text x="1260" y="855" fill="#5bc0be">无需资料片</text>
  </g>
</svg>
